<svg width="403" height="405" viewBox="0 0 403 405" fill="none" xmlns="http://www.w3.org/2000/svg">
<path d="M366.9 23.9998C361.1 38.0998 353.6 50.5998 345.3 61.7998C308.7 24.4998 257.5 0.799805 201 0.799805C89.9998 0.799805 -0.700195 90.9998 -0.700195 202.4C-0.700195 260.6 24.1998 313 63.6998 350L71.1998 356.7C106.1 386.2 151.5 404.1 200.9 404.1C306.9 404.1 394.2 321.4 401.7 217C407.7 166.3 392.3 101.4 366.9 23.9998ZM92.8998 351.7C87.0998 359.2 76.2998 360 68.7998 354.2C61.2998 348.4 60.4998 337.6 66.2998 330.1C72.0998 322.6 82.8998 321.8 90.3998 327.6C97.4998 333.4 98.6998 344.2 92.8998 351.7ZM365.7 291.4C316.2 357.5 209.8 335.1 142 338.4C142 338.4 129.9 339.2 117.9 340.9C117.9 340.9 122.5 338.8 128.3 336.7C176.1 320.1 198.6 316.7 227.7 301.8C282.2 273.9 336.6 212.8 347.5 149.6C326.7 210.3 263.5 262.7 206.1 283.9C166.6 298.5 95.4998 312.6 95.4998 312.6L92.5998 310.9C44.3998 287.2 42.6998 182.4 130.9 148.7C169.6 133.7 206.2 142 248.2 132.1C292.7 121.7 344.3 88.3998 365 44.7998C388.1 115.1 416.4 224 365.7 291.4Z" fill="#6CB52D"/>
<path d="M365.7 291.4C316.2 357.5 209.8 335.1 142 338.4C142 338.4 129.9 339.2 117.9 340.9C117.9 340.9 122.5 338.8 128.3 336.7C176.1 320.1 198.6 316.7 227.7 301.8C282.2 273.9 336.6 212.8 347.5 149.6C326.7 210.3 263.5 262.7 206.1 283.9C166.6 298.5 95.4998 312.6 95.4998 312.6L92.5998 310.9C44.3998 287.2 42.6998 182.4 130.9 148.7C169.6 133.7 206.2 142 248.2 132.1C292.7 121.7 344.3 88.3998 365 44.7998C388.1 115.1 416.4 224 365.7 291.4Z" fill="white"/>
</svg>
